_________________________  Visit us at _________________________
  
http://p2pdl.com  ____________________________  http://p2pdl.com


A Common Man 2012 BRRip 720p x264 AAC - PRiSTiNE [P2PDL]

Genre: Action | Thriller
Plot: A terrorist plants several bombs throughout the 
city of Colombo, Sri Lanka and threatens to detonate 
them unless prisoners are released.
Director: Chandran Rutnam
Stars: Mohamed Adamaly, Ben Cross, Jerome de Silva
Rated: Rated PG-13 for some violence and brief strong language

Info: 
http://www.imdb.com/title/tt2104837/

General
Complete name                  : A Common Man 2012 BRRip 720p x264 AAC - PRiSTiNE.mp4
Format                         : MPEG-4
File size                      : 551 MiB
Duration                       : 1h 25mn
Overall bit rate mode          : Variable
Overall bit rate               : 897 Kbps

Video
Format                         : AVC
Format/Info                    : Advanced Video Codec
Format profile                 : High 10@L4.1
Bit rate                       : 816 Kbps
Width                          : 1 280 pixels
Height                         : 720 pixels
Display aspect ratio           : 16:9
Frame rate mode                : Constant
Frame rate                     : 23.976 fps
Bit depth                      : 10 bits
Stream size                    : 500 MiB (91%)
Writing library                : x264 core 130 r2273 b3065e6

Audio
Format                         : AAC
Bit rate mode                  : Variable
Bit rate                       : 79.8 Kbps
Channel(s)                     : 2 channels
Channel positions              : Front: L R
Sampling rate                  : 48.0 KHz / 24.0 KHz
Stream size                    : 49.0 MiB (9%)
Language                       : English

Subtitle                       : Yes (English)
Source                         : 720p.BluRay.x264-SONiDO (Thanks)

Screenshots:
 
http://www.ultraimg.com/images/rT3qn.jpg 
http://www.ultraimg.com/images/DgGFH.jpg 
http://www.ultraimg.com/images/uR49I.jpg 
http://www.ultraimg.com/images/LAdc.jpg 
http://www.ultraimg.com/images/soqEK.jpg 
http://www.ultraimg.com/images/aJWjd.jpg 
http://www.ultraimg.com/images/3lUpw.jpg 
http://www.ultraimg.com/images/wkjQb.jpg

----------------------------------------------------------------------------------------------------


Encoded using revolutionary 10bit encoding, which enables us to provide you more crispier 
and sharper images at small sizes, just make sure you follow our instructions without a fault.
Recommend to you to use latest version of VLC player. Install K-Lite Codec Pack or shark007 codecs
in case of any kind of problem in playback (For non-VLC Media Player users). Alternatively, install
Core AVC codecs, the fastest decoder that there is coupled with Community Center Codec Pack and play
on Windows Media Player Classic. Check sample to be sure.
Enjoy!

Encoder Notes:Looking For Early Access To Anything You Can Provide DVDScr, R5, DVDR, BluRay, Direct
Audio, Music Releases and Seedboxes. We require dedicated servers, so as to do more 
and fast releases of movies.
If You Got anything to offer please contact us at "prg@hush.com".

Face book Fan Page:   
http://www.fb.me/p2pdl